<?xml version="1.0" encoding="UTF-8"?>
<!DOCTYPE svg PUBLIC "-//W3C//DTD SVG 1.1//EN"
    "http://www.w3.org/Graphics/SVG/1.1/DTD/svg11.dtd" >
<svg contentScriptType="text/ecmascript" width="2282.4375"
     xmlns:xlink="http://www.w3.org/1999/xlink" zoomAndPan="magnify"
     contentStyleType="text/css"
     viewBox="-1171.814697 -1032.853027 2282.437500 2084.316406"
     height="2084.3164" preserveAspectRatio="xMidYMid meet"
     xmlns="http://www.w3.org/2000/svg" version="1.1">
    <g id="edges">
        <path stroke-linecap="round" fill="none" class="id_1 id_2"
              d="M 187.494583,22.728516 A 471.998527,471.998527 0,0 1,-32.646454,-353.668793"
              stroke="#127c41" stroke-width="27.0" stroke-opacity="1.0"/>
        <path stroke-linecap="round" fill="none" class="id_1 id_3"
              d="M 201.858215,76.996254 A 527.630086,527.630086 0,0 1,-262.627106,318.520935"
              stroke="#178047" stroke-width="20.0" stroke-opacity="1.0"/>
        <path stroke-linecap="round" fill="none" class="id_1 id_4"
              d="M 250.355408,71.009109 A 799.761779,799.761779 0,0 1,378.329437,986.257568"
              stroke="#76b293" stroke-width="1.0" stroke-opacity="1.0"/>
        <path stroke-linecap="round" fill="none" class="id_1 id_5"
              d="M 183.519882,32.480518 A 688.805362,688.805362 0,0 1,-310.145996,-574.854065"
              stroke="#5da883" stroke-width="2.0" stroke-opacity="1.0"/>
        <path stroke-linecap="round" fill="none" class="id_1 id_6"
              d="M 183.024582,50.521400 A 643.718033,643.718033 0,0 1,-454.298676,-217.281921"
              stroke="#0d783c" stroke-width="8.0" stroke-opacity="1.0"/>
        <path stroke-linecap="round" fill="none" class="id_1 id_7"
              d="M 244.480576,75.808228 A 725.477978,725.477978 0,0 1,203.212891,908.310181"
              stroke="#70b08f" stroke-width="1.0" stroke-opacity="1.0"/>
        <path stroke-linecap="round" fill="none" class="id_1 id_8"
              d="M 230.057739,3.344551 A 587.472460,587.472460 0,0 1,717.157288,-443.418060"
              stroke="#5da883" stroke-width="2.0" stroke-opacity="1.0"/>
        <path stroke-linecap="round" fill="none" class="id_1 id_11"
              d="M 255.335648,65.015427 A 548.275684,548.275684 0,0 1,460.480804,650.879822"
              stroke="#70b08f" stroke-width="1.0" stroke-opacity="1.0"/>
        <path stroke-linecap="round" fill="none" class="id_1 id_15"
              d="M 261.003174,32.754070 A 700.949221,700.949221 0,0 1,1005.210083,341.020874"
              stroke="#76b293" stroke-width="1.0" stroke-opacity="1.0"/>
        <path stroke-linecap="round" fill="none" class="id_1 id_16"
              d="M 261.754700,48.695133 A 631.743648,631.743648 0,0 1,767.851379,562.190369"
              stroke="#70b08f" stroke-width="1.0" stroke-opacity="1.0"/>
        <path stroke-linecap="round" fill="none" class="id_2 id_1"
              d="M 4.233266,-451.174347 A 471.998527,471.998527 0,0 1,230.820343,-60.070415"
              stroke="#127c41" stroke-width="21.0" stroke-opacity="1.0"/>
        <path stroke-linecap="round" fill="none" class="id_2 id_3"
              d="M -17.322712,-435.158539 A 700.977450,700.977450 0,0 1,-284.544495,261.731659"
              stroke="#298f5c" stroke-width="17.0" stroke-opacity="1.0"/>
        <path stroke-linecap="round" fill="none" class="id_2 id_5"
              d="M -56.848194,-461.432434 A 259.482030,259.482030 0,0 1,-303.701324,-576.922791"
              stroke="#70b799" stroke-width="2.0" stroke-opacity="1.0"/>
        <path stroke-linecap="round" fill="none" class="id_2 id_6"
              d="M -41.853050,-439.344177 A 418.888584,418.888584 0,0 1,-397.537140,-255.698074"
              stroke="#208751" stroke-width="18.0" stroke-opacity="1.0"/>
        <path stroke-linecap="round" fill="none" class="id_2 id_8"
              d="M 2.913723,-485.545532 A 629.923172,629.923172 0,0 1,722.388367,-452.116882"
              stroke="#70b799" stroke-width="1.0" stroke-opacity="1.0"/>
        <path stroke-linecap="round" fill="none" class="id_2 id_12"
              d="M -5.988440,-494.517426 A 281.515136,281.515136 0,0 1,268.410217,-599.974060"
              stroke="#70b799" stroke-width="4.0" stroke-opacity="1.0"/>
        <path stroke-linecap="round" fill="none" class="id_2 id_18"
              d="M -22.973339,-434.408234 A 935.797184,935.797184 0,0 1,-630.046082,467.814667"
              stroke="#70b799" stroke-width="1.0" stroke-opacity="1.0"/>
        <path stroke-linecap="round" fill="none" class="id_2 id_26"
              d="M -56.201946,-458.584412 A 537.484110,537.484110 0,0 1,-628.160950,-680.829407"
              stroke="#82bfa5" stroke-width="1.0" stroke-opacity="1.0"/>
        <path stroke-linecap="round" fill="none" class="id_2 id_27"
              d="M -42.805420,-494.607178 A 459.729952,459.729952 0,0 1,-17.795860,-1015.713745"
              stroke="#89c1a9" stroke-width="1.0" stroke-opacity="1.0"/>
        <path stroke-linecap="round" fill="none" class="id_3 id_1"
              d="M -337.411072,280.131165 A 527.630086,527.630086 0,0 1,107.840103,30.705494"
              stroke="#178047" stroke-width="25.0" stroke-opacity="1.0"/>
        <path stroke-linecap="round" fill="none" class="id_3 id_2"
              d="M -359.834595,276.674866 A 700.977450,700.977450 0,0 1,-115.674644,-404.185699"
              stroke="#298f5c" stroke-width="26.0" stroke-opacity="1.0"/>
        <path stroke-linecap="round" fill="none" class="id_3 id_6"
              d="M -376.195648,286.245178 A 490.939413,490.939413 0,0 1,-513.922791,-182.979584"
              stroke="#248b57" stroke-width="18.0" stroke-opacity="1.0"/>
        <path stroke-linecap="round" fill="none" class="id_3 id_12"
              d="M -353.323578,275.925781 A 922.635767,922.635767 0,0 1,271.796692,-590.266235"
              stroke="#74bb9e" stroke-width="3.0" stroke-opacity="1.0"/>
        <path stroke-linecap="round" fill="none" class="id_3 id_14"
              d="M -331.434998,284.640015 A 970.721600,970.721600 0,0 1,782.212341,96.855034"
              stroke="#6eb99a" stroke-width="1.0" stroke-opacity="1.0"/>
        <path stroke-linecap="round" fill="none" class="id_3 id_18"
              d="M -366.965454,334.909668 A 276.001957,276.001957 0,0 1,-629.422913,472.789001"
              stroke="#74bb9e" stroke-width="1.0" stroke-opacity="1.0"/>
        <path stroke-linecap="round" fill="none" class="id_3 id_20"
              d="M -362.633209,336.682556 A 476.334260,476.334260 0,0 1,-805.191162,651.493042"
              stroke="#8dc5ae" stroke-width="1.0" stroke-opacity="1.0"/>
        <path stroke-linecap="round" fill="none" class="id_3 id_23"
              d="M -374.724945,284.717194 A 1007.509929,1007.509929 0,0 1,-526.523376,-886.203613"
              stroke="#8dc5ae" stroke-width="1.0" stroke-opacity="1.0"/>
        <path stroke-linecap="round" fill="none" class="id_5 id_1"
              d="M -303.229828,-587.053345 A 688.805362,688.805362 0,0 1,218.402313,-0.259185"
              stroke="#5da883" stroke-width="1.0" stroke-opacity="1.0"/>
        <path stroke-linecap="round" fill="none" class="id_5 id_6"
              d="M -310.025085,-580.893738 A 305.109241,305.109241 0,0 1,-449.748810,-286.399048"
              stroke="#6bb493" stroke-width="2.0" stroke-opacity="1.0"/>
        <path stroke-linecap="round" fill="none" class="id_6 id_1"
              d="M -451.537109,-274.016815 A 643.718033,643.718033 0,0 1,177.376877,-26.077368"
              stroke="#0d783c" stroke-width="14.0" stroke-opacity="1.0"/>
        <path stroke-linecap="round" fill="none" class="id_6 id_2"
              d="M -467.109406,-296.388123 A 418.888584,418.888584 0,0 1,-95.589523,-477.866425"
              stroke="#208751" stroke-width="13.0" stroke-opacity="1.0"/>
        <path stroke-linecap="round" fill="none" class="id_6 id_3"
              d="M -459.789764,-243.703598 A 490.939413,490.939413 0,0 1,-324.743652,223.590317"
              stroke="#248b57" stroke-width="19.0" stroke-opacity="1.0"/>
        <path stroke-linecap="round" fill="none" class="id_6 id_5"
              d="M -488.621307,-301.523468 A 305.109241,305.109241 0,0 1,-323.768219,-582.733459"
              stroke="#6bb493" stroke-width="2.0" stroke-opacity="1.0"/>
        <path stroke-linecap="round" fill="none" class="id_6 id_14"
              d="M -452.879181,-278.765472 A 1109.620216,1109.620216 0,0 1,785.932495,92.344551"
              stroke="#65b18f" stroke-width="1.0" stroke-opacity="1.0"/>
        <path stroke-linecap="round" fill="none" class="id_6 id_18"
              d="M -471.701141,-235.163193 A 628.922043,628.922043 0,0 1,-625.570496,458.150055"
              stroke="#6bb493" stroke-width="4.0" stroke-opacity="1.0"/>
        <path stroke-linecap="round" fill="none" class="id_6 id_29"
              d="M -493.083191,-300.824768 A 584.024533,584.024533 0,0 1,-221.856979,-911.336243"
              stroke="#7dbb9f" stroke-width="1.0" stroke-opacity="1.0"/>
        <path stroke-linecap="round" fill="none" class="id_6 id_33"
              d="M -479.133514,-301.075409 A 905.686813,905.686813 0,0 1,296.888977,-1016.720032"
              stroke="#84bea3" stroke-width="1.0" stroke-opacity="1.0"/>
        <path stroke-linecap="round" fill="none" class="id_7 id_1"
              d="M 198.047455,910.587524 A 725.477978,725.477978 0,0 1,196.553940,77.065727"
              stroke="#70b08f" stroke-width="1.0" stroke-opacity="1.0"/>
        <path stroke-linecap="round" fill="none" class="id_8 id_1"
              d="M 729.756165,-437.309143 A 587.472460,587.472460 0,0 1,264.694885,35.830425"
              stroke="#5da883" stroke-width="1.0" stroke-opacity="1.0"/>
        <path stroke-linecap="round" fill="none" class="id_8 id_2"
              d="M 724.483032,-440.662018 A 629.923172,629.923172 0,0 1,4.250865,-445.720825"
              stroke="#70b799" stroke-width="1.0" stroke-opacity="1.0"/>
        <path stroke-linecap="round" fill="none" class="id_8 id_6"
              d="M 725.401123,-439.564331 A 1024.681763,1024.681763 0,0 1,-452.067444,-249.595444"
              stroke="#6bb493" stroke-width="1.0" stroke-opacity="1.0"/>
        <path stroke-linecap="round" fill="none" class="id_9 id_1"
              d="M 973.445068,-118.347389 A 640.883814,640.883814 0,0 1,261.862976,59.242016"
              stroke="#76b293" stroke-width="1.0" stroke-opacity="1.0"/>
        <path stroke-linecap="round" fill="none" class="id_10 id_1"
              d="M 654.004150,-745.235229 A 749.309052,749.309052 0,0 1,260.846069,23.662188"
              stroke="#76b293" stroke-width="1.0" stroke-opacity="1.0"/>
        <path stroke-linecap="round" fill="none" class="id_11 id_1"
              d="M 456.593384,654.966064 A 548.275684,548.275684 0,0 1,211.582657,87.322090"
              stroke="#70b08f" stroke-width="2.0" stroke-opacity="1.0"/>
        <path stroke-linecap="round" fill="none" class="id_12 id_1"
              d="M 292.137695,-588.659058 A 534.650196,534.650196 0,0 1,250.125076,9.849441"
              stroke="#5da883" stroke-width="1.0" stroke-opacity="1.0"/>
        <path stroke-linecap="round" fill="none" class="id_12 id_2"
              d="M 283.782654,-588.737427 A 281.515136,281.515136 0,0 1,10.799628,-460.502808"
              stroke="#70b799" stroke-width="1.0" stroke-opacity="1.0"/>
        <path stroke-linecap="round" fill="none" class="id_12 id_3"
              d="M 288.199890,-587.537781 A 922.635767,922.635767 0,0 1,-317.906311,295.030579"
              stroke="#74bb9e" stroke-width="2.0" stroke-opacity="1.0"/>
        <path stroke-linecap="round" fill="none" class="id_13 id_1"
              d="M 7.806824,755.832336 A 621.328609,621.328609 0,0 1,186.259384,71.247490"
              stroke="#76b293" stroke-width="2.0" stroke-opacity="1.0"/>
        <path stroke-linecap="round" fill="none" class="id_14 id_1"
              d="M 785.219055,107.545059 A 478.875815,478.875815 0,0 1,255.026031,70.376610"
              stroke="#57a67f" stroke-width="1.0" stroke-opacity="1.0"/>
        <path stroke-linecap="round" fill="none" class="id_14 id_2"
              d="M 783.877014,102.858643 A 830.906746,830.906746 0,0 1,-12.469595,-433.436707"
              stroke="#6ab595" stroke-width="1.0" stroke-opacity="1.0"/>
        <path stroke-linecap="round" fill="none" class="id_14 id_3"
              d="M 786.970459,109.747787 A 970.721600,970.721600 0,0 1,-319.567047,323.143921"
              stroke="#6eb99a" stroke-width="2.0" stroke-opacity="1.0"/>
        <path stroke-linecap="round" fill="none" class="id_14 id_6"
              d="M 784.497559,106.025215 A 1109.620216,1109.620216 0,0 1,-462.304169,-237.284744"
              stroke="#65b18f" stroke-width="1.0" stroke-opacity="1.0"/>
        <path stroke-linecap="round" fill="none" class="id_16 id_1"
              d="M 766.055664,567.539795 A 631.743648,631.743648 0,0 1,230.591049,84.749016"
              stroke="#70b08f" stroke-width="1.0" stroke-opacity="1.0"/>
        <path stroke-linecap="round" fill="none" class="id_17 id_3"
              d="M -120.996811,1036.914185 A 638.877182,638.877182 0,0 1,-363.394287,339.589020"
              stroke="#8dc5ae" stroke-width="1.0" stroke-opacity="1.0"/>
        <path stroke-linecap="round" fill="none" class="id_18 id_3"
              d="M -637.141479,464.263336 A 276.001957,276.001957 0,0 1,-393.124908,305.027985"
              stroke="#74bb9e" stroke-width="3.0" stroke-opacity="1.0"/>
        <path stroke-linecap="round" fill="none" class="id_18 id_6"
              d="M -643.829529,464.291351 A 628.922043,628.922043 0,0 1,-513.057495,-241.284332"
              stroke="#6bb493" stroke-width="1.0" stroke-opacity="1.0"/>
        <path stroke-linecap="round" fill="none" class="id_19 id_3"
              d="M 648.778992,842.218628 A 947.164371,947.164371 0,0 1,-338.031586,337.720856"
              stroke="#8dc5ae" stroke-width="1.0" stroke-opacity="1.0"/>
        <path stroke-linecap="round" fill="none" class="id_21 id_3"
              d="M -564.452576,840.630554 A 478.939190,478.939190 0,0 1,-381.467163,325.960358"
              stroke="#8dc5ae" stroke-width="1.0" stroke-opacity="1.0"/>
        <path stroke-linecap="round" fill="none" class="id_22 id_3"
              d="M -337.582062,905.188110 A 499.272695,499.272695 0,0 1,-371.818054,335.568359"
              stroke="#8dc5ae" stroke-width="1.0" stroke-opacity="1.0"/>
        <path stroke-linecap="round" fill="none" class="id_24 id_2"
              d="M 149.972672,-801.559448 A 314.877180,314.877180 0,0 1,9.499074,-486.269470"
              stroke="#89c1a9" stroke-width="2.0" stroke-opacity="1.0"/>
        <path stroke-linecap="round" fill="none" class="id_25 id_2"
              d="M -932.056091,-351.768311 A 763.095418,763.095418 0,0 1,-56.101135,-484.269409"
              stroke="#89c1a9" stroke-width="1.0" stroke-opacity="1.0"/>
        <path stroke-linecap="round" fill="none" class="id_26 id_2"
              d="M -628.707214,-686.442444 A 537.484110,537.484110 0,0 1,-45.191536,-496.606079"
              stroke="#82bfa5" stroke-width="1.0" stroke-opacity="1.0"/>
        <path stroke-linecap="round" fill="none" class="id_28 id_2"
              d="M 961.778442,-510.983185 A 823.341439,823.341439 0,0 1,5.635894,-447.700592"
              stroke="#89c1a9" stroke-width="1.0" stroke-opacity="1.0"/>
        <path stroke-linecap="round" fill="none" class="id_29 id_6"
              d="M -216.222366,-911.610840 A 584.024533,584.024533 0,0 1,-453.697571,-287.197601"
              stroke="#7dbb9f" stroke-width="1.0" stroke-opacity="1.0"/>
        <path stroke-linecap="round" fill="none" class="id_30 id_6"
              d="M -999.128906,305.036957 A 641.316961,641.316961 0,0 1,-522.223450,-258.546509"
              stroke="#84bea3" stroke-width="1.0" stroke-opacity="1.0"/>
        <path stroke-linecap="round" fill="none" class="id_31 id_6"
              d="M -1065.692139,-24.955835 A 524.542724,524.542724 0,0 1,-522.340881,-274.890076"
              stroke="#84bea3" stroke-width="1.0" stroke-opacity="1.0"/>
        <path stroke-linecap="round" fill="none" class="id_32 id_6"
              d="M -843.917786,-55.791836 A 347.343914,347.343914 0,0 1,-526.127014,-269.056702"
              stroke="#84bea3" stroke-width="2.0" stroke-opacity="1.0"/>
        <path stroke-linecap="round" fill="none" class="id_34 id_6"
              d="M -900.514465,-611.293213 A 450.040265,450.040265 0,0 1,-495.829559,-303.220398"
              stroke="#84bea3" stroke-width="1.0" stroke-opacity="1.0"/>
    </g>
    <g id="arrows">
        <polyline fill="#127c41" fill-opacity="1.0" class="id_1 id_2"
                  points="-26.827568,-434.459503 7.748905,-350.759338 -73.041809,-356.578247"
                  stroke="none"/>
        <polyline fill="#178047" fill-opacity="1.0" class="id_1 id_3"
                  points="-322.150848,310.976135 -258.854706,288.759064 -266.399506,348.282806"
                  stroke="none"/>
        <polyline fill="#76b293" fill-opacity="1.0" class="id_1 id_4"
                  points="376.945251,988.919128 376.998657,985.565491 379.660217,986.949646"
                  stroke="none"/>
        <polyline fill="#5da883" fill-opacity="1.0" class="id_1 id_5"
                  points="-310.554047,-580.840149 -307.152954,-575.058105 -313.139038,-574.650024"
                  stroke="none"/>
        <polyline fill="#0d783c" fill-opacity="1.0" class="id_1 id_6"
                  points="-467.058777,-237.608765 -444.135284,-223.661972 -464.462128,-210.901871"
                  stroke="none"/>
        <polyline fill="#70b08f" fill-opacity="1.0" class="id_1 id_7"
                  points="201.360626,910.670105 202.032944,907.384033 204.392838,909.236328"
                  stroke="none"/>
        <polyline fill="#5da883" fill-opacity="1.0" class="id_1 id_8"
                  points="723.104431,-444.212402 717.554443,-440.444458 716.760132,-446.391663"
                  stroke="none"/>
        <polyline fill="#70b08f" fill-opacity="1.0" class="id_1 id_11"
                  points="459.680054,653.770996 459.035217,650.479431 461.926392,651.280212"
                  stroke="none"/>
        <polyline fill="#76b293" fill-opacity="1.0" class="id_1 id_15"
                  points="1006.811584,343.557648 1003.941711,341.821625 1006.478455,340.220123"
                  stroke="none"/>
        <polyline fill="#70b08f" fill-opacity="1.0" class="id_1 id_16"
                  points="768.348022,565.148926 766.372070,562.438660 769.330688,561.942078"
                  stroke="none"/>
        <polyline fill="#127c41" fill-opacity="1.0" class="id_2 id_1"
                  points="225.563843,2.709908 199.430176,-62.698662 262.210510,-57.442177"
                  stroke="none"/>
        <polyline fill="#298f5c" fill-opacity="1.0" class="id_2 id_3"
                  points="-327.074677,289.877411 -298.617371,240.466568 -270.471619,282.996765"
                  stroke="none"/>
        <polyline fill="#70b799" fill-opacity="1.0" class="id_2 id_5"
                  points="-306.853546,-582.028015 -301.148712,-578.498901 -306.253937,-575.346680"
                  stroke="none"/>
        <polyline fill="#208751" fill-opacity="1.0" class="id_2 id_6"
                  points="-451.098175,-262.569427 -394.101471,-282.478607 -400.972809,-228.917557"
                  stroke="none"/>
        <polyline fill="#70b799" fill-opacity="1.0" class="id_2 id_8"
                  points="724.751343,-450.268524 721.464172,-450.935394 723.312561,-453.298370"
                  stroke="none"/>
        <polyline fill="#70b799" fill-opacity="1.0" class="id_2 id_12"
                  points="280.125946,-597.377502 267.111969,-594.116211 269.708466,-605.831909"
                  stroke="none"/>
        <polyline fill="#70b799" fill-opacity="1.0" class="id_2 id_18"
                  points="-632.861511,468.850677 -630.564087,466.406952 -629.528076,469.222382"
                  stroke="none"/>
        <polyline fill="#82bfa5" fill-opacity="1.0" class="id_2 id_26"
                  points="-629.823303,-683.326721 -626.912292,-681.660583 -629.409607,-679.998230"
                  stroke="none"/>
        <polyline fill="#89c1a9" fill-opacity="1.0" class="id_2 id_27"
                  points="-15.966817,-1018.091675 -16.606890,-1014.799194 -18.984831,-1016.628296"
                  stroke="none"/>
        <polyline fill="#178047" fill-opacity="1.0" class="id_3 id_1"
                  points="182.439850,38.443501 103.971100,68.005371 111.709106,-6.594379"
                  stroke="none"/>
        <polyline fill="#298f5c" fill-opacity="1.0" class="id_3 id_2"
                  points="-51.527748,-448.561096 -93.486954,-372.112244 -137.862335,-436.259155"
                  stroke="none"/>
        <polyline fill="#248b57" fill-opacity="1.0" class="id_3 id_6"
                  points="-496.614441,-234.130554 -488.347229,-174.325424 -539.498230,-191.633743"
                  stroke="none"/>
        <polyline fill="#74bb9e" fill-opacity="1.0" class="id_3 id_12"
                  points="280.342560,-593.089111 273.208130,-585.993286 270.385254,-594.539185"
                  stroke="none"/>
        <polyline fill="#6eb99a" fill-opacity="1.0" class="id_3 id_14"
                  points="784.899902,98.187981 781.545837,98.198830 782.878845,95.511223"
                  stroke="none"/>
        <polyline fill="#74bb9e" fill-opacity="1.0" class="id_3 id_18"
                  points="-632.406921,472.479492 -629.268188,471.296997 -629.577637,474.281006"
                  stroke="none"/>
        <polyline fill="#8dc5ae" fill-opacity="1.0" class="id_3 id_20"
                  points="-808.191040,651.515503 -805.202393,649.993103 -805.179932,652.992981"
                  stroke="none"/>
        <polyline fill="#8dc5ae" fill-opacity="1.0" class="id_3 id_23"
                  points="-525.087402,-888.837646 -525.206360,-885.485596 -527.840393,-886.921631"
                  stroke="none"/>
        <polyline fill="#5da883" fill-opacity="1.0" class="id_5 id_1"
                  points="218.669098,2.728928 216.908264,-0.125787 219.896362,-0.392584"
                  stroke="none"/>
        <polyline fill="#6bb493" fill-opacity="1.0" class="id_5 id_6"
                  points="-455.021332,-283.535400 -451.180634,-289.035309 -448.316986,-283.762787"
                  stroke="none"/>
        <polyline fill="#0d783c" fill-opacity="1.0" class="id_6 id_1"
                  points="200.348587,9.083702 159.796341,-14.591517 194.957413,-37.563221"
                  stroke="none"/>
        <polyline fill="#208751" fill-opacity="1.0" class="id_6 id_2"
                  points="-57.014191,-472.126801 -98.459343,-458.578766 -92.719719,-497.154083"
                  stroke="none"/>
        <polyline fill="#248b57" fill-opacity="1.0" class="id_6 id_3"
                  points="-343.043671,277.572815 -351.734894,214.440308 -297.752411,232.740295"
                  stroke="none"/>
        <polyline fill="#6bb493" fill-opacity="1.0" class="id_6 id_5"
                  points="-318.375824,-585.364502 -322.452728,-580.037292 -325.083710,-585.429626"
                  stroke="none"/>
        <polyline fill="#65b18f" fill-opacity="1.0" class="id_6 id_14"
                  points="787.752502,94.729416 784.740051,93.254555 787.124939,91.434547"
                  stroke="none"/>
        <polyline fill="#6bb493" fill-opacity="1.0" class="id_6 id_18"
                  points="-634.460571,466.210266 -629.600586,453.705017 -621.540405,462.595093"
                  stroke="none"/>
        <polyline fill="#7dbb9f" fill-opacity="1.0" class="id_6 id_29"
                  points="-219.282196,-912.875916 -221.087158,-910.048828 -222.626801,-912.623657"
                  stroke="none"/>
        <polyline fill="#84bea3" fill-opacity="1.0" class="id_6 id_33"
                  points="299.867188,-1017.080933 297.069427,-1015.230896 296.708527,-1018.209167"
                  stroke="none"/>
        <polyline fill="#70b08f" fill-opacity="1.0" class="id_7 id_1"
                  points="198.345047,74.659081 197.757263,77.961288 195.350616,76.170181"
                  stroke="none"/>
        <polyline fill="#5da883" fill-opacity="1.0" class="id_8 id_1"
                  points="261.731964,36.300655 264.459778,34.348961 264.929993,37.311882"
                  stroke="none"/>
        <polyline fill="#70b799" fill-opacity="1.0" class="id_8 id_2"
                  points="1.851946,-447.522278 5.151584,-446.920288 3.350140,-444.521362"
                  stroke="none"/>
        <polyline fill="#6bb493" fill-opacity="1.0" class="id_8 id_6"
                  points="-454.729004,-250.979706 -451.375305,-250.926224 -452.759583,-248.264664"
                  stroke="none"/>
        <polyline fill="#76b293" fill-opacity="1.0" class="id_9 id_1"
                  points="259.097626,58.078880 262.444550,57.859341 261.281403,60.624683"
                  stroke="none"/>
        <polyline fill="#76b293" fill-opacity="1.0" class="id_10 id_1"
                  points="258.151672,24.981369 260.186493,22.314991 261.505646,25.009388"
                  stroke="none"/>
        <polyline fill="#70b08f" fill-opacity="1.0" class="id_11 id_1"
                  points="212.970963,81.484917 214.501236,88.016251 208.664078,86.627930"
                  stroke="none"/>
        <polyline fill="#5da883" fill-opacity="1.0" class="id_12 id_1"
                  points="248.178665,12.132299 248.983643,8.876231 251.266510,10.822652"
                  stroke="none"/>
        <polyline fill="#70b799" fill-opacity="1.0" class="id_12 id_2"
                  points="7.853600,-461.069305 11.082876,-461.975830 10.516382,-459.029785"
                  stroke="none"/>
        <polyline fill="#74bb9e" fill-opacity="1.0" class="id_12 id_3"
                  points="-323.582733,296.974274 -318.878143,292.192352 -316.934479,297.868805"
                  stroke="none"/>
        <polyline fill="#76b293" fill-opacity="1.0" class="id_13 id_1"
                  points="190.950729,67.507004 188.129608,73.593170 184.389130,68.901825"
                  stroke="none"/>
        <polyline fill="#57a67f" fill-opacity="1.0" class="id_14 id_1"
                  points="252.737686,68.436646 255.996017,69.232437 254.056046,71.520782"
                  stroke="none"/>
        <polyline fill="#6ab595" fill-opacity="1.0" class="id_14 id_2"
                  points="-13.471611,-436.264404 -11.055737,-433.937714 -13.883450,-432.935699"
                  stroke="none"/>
        <polyline fill="#6eb99a" fill-opacity="1.0" class="id_14 id_3"
                  points="-324.975159,320.545441 -318.267792,320.439850 -320.866302,325.847992"
                  stroke="none"/>
        <polyline fill="#65b18f" fill-opacity="1.0" class="id_14 id_6"
                  points="-464.150726,-239.649109 -461.121979,-238.208023 -463.486359,-236.361465"
                  stroke="none"/>
        <polyline fill="#70b08f" fill-opacity="1.0" class="id_16 id_1"
                  points="230.007462,81.806320 232.062393,84.457214 229.119705,85.040802"
                  stroke="none"/>
        <polyline fill="#8dc5ae" fill-opacity="1.0" class="id_17 id_3"
                  points="-362.484314,336.730347 -361.964966,340.044006 -364.823608,339.134033"
                  stroke="none"/>
        <polyline fill="#74bb9e" fill-opacity="1.0" class="id_18 id_3"
                  points="-384.136475,305.483826 -393.352844,309.522217 -392.896973,300.533752"
                  stroke="none"/>
        <polyline fill="#6bb493" fill-opacity="1.0" class="id_18 id_6"
                  points="-510.863342,-243.330276 -512.034546,-240.187271 -514.080444,-242.381393"
                  stroke="none"/>
        <polyline fill="#8dc5ae" fill-opacity="1.0" class="id_19 id_3"
                  points="-339.350555,335.026367 -336.684326,337.061371 -339.378845,338.380341"
                  stroke="none"/>
        <polyline fill="#8dc5ae" fill-opacity="1.0" class="id_21 id_3"
                  points="-378.968903,324.299438 -380.636688,327.209473 -382.297638,324.711243"
                  stroke="none"/>
        <polyline fill="#8dc5ae" fill-opacity="1.0" class="id_22 id_3"
                  points="-370.167786,333.063049 -370.565399,336.393494 -373.070709,334.743225"
                  stroke="none"/>
        <polyline fill="#89c1a9" fill-opacity="1.0" class="id_24 id_2"
                  points="4.261864,-483.341736 8.035206,-488.888062 10.962940,-483.650879"
                  stroke="none"/>
        <polyline fill="#89c1a9" fill-opacity="1.0" class="id_25 id_2"
                  points="-53.457985,-482.850342 -56.810669,-482.947845 -55.391602,-485.590973"
                  stroke="none"/>
        <polyline fill="#82bfa5" fill-opacity="1.0" class="id_26 id_2"
                  points="-43.459820,-494.156342 -46.416401,-495.740234 -43.966671,-497.471924"
                  stroke="none"/>
        <polyline fill="#89c1a9" fill-opacity="1.0" class="id_28 id_2"
                  points="3.121265,-449.336639 6.453916,-448.957916 4.817870,-446.443268"
                  stroke="none"/>
        <polyline fill="#7dbb9f" fill-opacity="1.0" class="id_29 id_6"
                  points="-456.229340,-285.588226 -454.502258,-288.463470 -452.892883,-285.931732"
                  stroke="none"/>
        <polyline fill="#84bea3" fill-opacity="1.0" class="id_30 id_6"
                  points="-519.299561,-259.218140 -521.887634,-257.084595 -522.559265,-260.008423"
                  stroke="none"/>
        <polyline fill="#84bea3" fill-opacity="1.0" class="id_31 id_6"
                  points="-519.407654,-274.260529 -522.655640,-273.423462 -522.026123,-276.356689"
                  stroke="none"/>
        <polyline fill="#84bea3" fill-opacity="1.0" class="id_32 id_6"
                  points="-520.134766,-268.750793 -526.279968,-266.060608 -525.974060,-272.052795"
                  stroke="none"/>
        <polyline fill="#84bea3" fill-opacity="1.0" class="id_34 id_6"
                  points="-495.007050,-300.335358 -497.272064,-302.809143 -494.387054,-303.631653"
                  stroke="none"/>
    </g>
    <g id="nodes">
        <circle fill-opacity="1.0" fill="#006d2c" r="36.8" cx="222.2264"
                class="id_1" cy="42.570435" stroke="#004c1e"
                stroke-opacity="1.0" stroke-width="6.3999996"/>
        <circle fill-opacity="1.0" fill="#258b57" r="30.276361" cx="-24.46344"
                class="id_2" cy="-467.28357" stroke="#19613c"
                stroke-opacity="1.0" stroke-width="5.265454"/>
        <circle fill-opacity="1.0" fill="#2e9362" r="28.645452" cx="-353.04007"
                class="id_3" cy="307.06085" stroke="#206644"
                stroke-opacity="1.0" stroke-width="4.9818177"/>
        <circle fill-opacity="1.0" fill="#edf8fb" r="0.92" cx="376.48386"
                class="id_4" cy="989.80634" stroke="#a5adaf"
                stroke-opacity="1.0" stroke-width="0.16"/>
        <circle fill-opacity="1.0" fill="#bbe4db" r="7.4436374" cx="-311.10428"
                class="id_5" cy="-588.91235" stroke="#829f99"
                stroke-opacity="1.0" stroke-width="1.2945455"/>
        <circle fill-opacity="1.0" fill="#1b844c" r="31.907274" cx="-485.49808"
                class="id_6" cy="-266.98257" stroke="#125c35"
                stroke-opacity="1.0" stroke-width="5.549091"/>
        <circle fill-opacity="1.0" fill="#e0f3f3" r="2.5509093" cx="199.64868"
                class="id_7" cy="912.8512" stroke="#9caaaa" stroke-opacity="1.0"
                stroke-width="0.4436364"/>
        <circle fill-opacity="1.0" fill="#bbe4db" r="7.4436374" cx="731.12415"
                class="id_8" cy="-445.28357" stroke="#829f99"
                stroke-opacity="1.0" stroke-width="1.2945455"/>
        <circle fill-opacity="1.0" fill="#edf8fb" r="0.92" cx="974.1016"
                class="id_9" cy="-119.101654" stroke="#a5adaf"
                stroke-opacity="1.0" stroke-width="0.16"/>
        <circle fill-opacity="1.0" fill="#edf8fb" r="0.92" cx="653.8625"
                class="id_10" cy="-746.22516" stroke="#a5adaf"
                stroke-opacity="1.0" stroke-width="0.16"/>
        <circle fill-opacity="1.0" fill="#e0f3f3" r="2.5509093" cx="458.93994"
                class="id_11" cy="656.4431" stroke="#9caaaa"
                stroke-opacity="1.0" stroke-width="0.4436364"/>
        <circle fill-opacity="1.0" fill="#bbe4db" r="7.4436374" cx="288.02518"
                class="id_12" cy="-595.62683" stroke="#829f99"
                stroke-opacity="1.0" stroke-width="1.2945455"/>
        <circle fill-opacity="1.0" fill="#edf8fb" r="0.92" cx="8.151115"
                class="id_13" cy="756.7712" stroke="#a5adaf"
                stroke-opacity="1.0" stroke-width="0.16"/>
        <circle fill-opacity="1.0" fill="#afdfd3" r="9.074546" cx="793.73645"
                class="id_14" cy="102.57057" stroke="#7a9c93"
                stroke-opacity="1.0" stroke-width="1.5781819"/>
        <circle fill-opacity="1.0" fill="#edf8fb" r="0.92" cx="1007.3454"
                class="id_15" cy="344.40323" stroke="#a5adaf"
                stroke-opacity="1.0" stroke-width="0.16"/>
        <circle fill-opacity="1.0" fill="#e0f3f3" r="2.5509093" cx="768.807"
                class="id_16" cy="567.8834" stroke="#9caaaa"
                stroke-opacity="1.0" stroke-width="0.4436364"/>
        <circle fill-opacity="1.0" fill="#edf8fb" r="0.92" cx="-120.182625"
                class="id_17" cy="1037.4948" stroke="#a5adaf"
                stroke-opacity="1.0" stroke-width="0.16"/>
        <circle fill-opacity="1.0" fill="#bbe4db" r="7.4436374" cx="-640.45465"
                class="id_18" cy="471.64478" stroke="#829f99"
                stroke-opacity="1.0" stroke-width="1.2945455"/>
        <circle fill-opacity="1.0" fill="#edf8fb" r="0.92" cx="649.76733"
                class="id_19" cy="842.06635" stroke="#a5adaf"
                stroke-opacity="1.0" stroke-width="0.16"/>
        <circle fill-opacity="1.0" fill="#edf8fb" r="0.92" cx="-809.19104"
                class="id_20" cy="651.523" stroke="#a5adaf" stroke-opacity="1.0"
                stroke-width="0.16"/>
        <circle fill-opacity="1.0" fill="#edf8fb" r="0.92" cx="-564.18945"
                class="id_21" cy="841.59534" stroke="#a5adaf"
                stroke-opacity="1.0" stroke-width="0.16"/>
        <circle fill-opacity="1.0" fill="#edf8fb" r="0.92" cx="-336.9616"
                class="id_22" cy="905.97235" stroke="#a5adaf"
                stroke-opacity="1.0" stroke-width="0.16"/>
        <circle fill-opacity="1.0" fill="#edf8fb" r="0.92" cx="-524.60876"
                class="id_23" cy="-889.71564" stroke="#a5adaf"
                stroke-opacity="1.0" stroke-width="0.16"/>
        <circle fill-opacity="1.0" fill="#edf8fb" r="0.92" cx="149.81085"
                class="id_24" cy="-802.54626" stroke="#a5adaf"
                stroke-opacity="1.0" stroke-width="0.16"/>
        <circle fill-opacity="1.0" fill="#edf8fb" r="0.92" cx="-932.7739"
                class="id_25" cy="-351.0721" stroke="#a5adaf"
                stroke-opacity="1.0" stroke-width="0.16"/>
        <circle fill-opacity="1.0" fill="#e0f3f3" r="2.5509093" cx="-631.35974"
                class="id_26" cy="-685.6348" stroke="#9caaaa"
                stroke-opacity="1.0" stroke-width="0.4436364"/>
        <circle fill-opacity="1.0" fill="#edf8fb" r="0.92" cx="-15.357136"
                class="id_27" cy="-1018.88434" stroke="#a5adaf"
                stroke-opacity="1.0" stroke-width="0.16"/>
        <circle fill-opacity="1.0" fill="#edf8fb" r="0.92" cx="962.5511"
                class="id_28" cy="-511.618" stroke="#a5adaf"
                stroke-opacity="1.0" stroke-width="0.16"/>
        <circle fill-opacity="1.0" fill="#e0f3f3" r="2.5509093" cx="-216.90247"
                class="id_29" cy="-914.2989" stroke="#9caaaa"
                stroke-opacity="1.0" stroke-width="0.4436364"/>
        <circle fill-opacity="1.0" fill="#edf8fb" r="0.92" cx="-999.2169"
                class="id_30" cy="306.03308" stroke="#a5adaf"
                stroke-opacity="1.0" stroke-width="0.16"/>
        <circle fill-opacity="1.0" fill="#edf8fb" r="0.92" cx="-1066.1995"
                class="id_31" cy="-24.094076" stroke="#a5adaf"
                stroke-opacity="1.0" stroke-width="0.16"/>
        <circle fill-opacity="1.0" fill="#edf8fb" r="0.92" cx="-844.3024"
                class="id_32" cy="-54.868774" stroke="#a5adaf"
                stroke-opacity="1.0" stroke-width="0.16"/>
        <circle fill-opacity="1.0" fill="#edf8fb" r="0.92" cx="300.85992"
                class="id_33" cy="-1017.20123" stroke="#a5adaf"
                stroke-opacity="1.0" stroke-width="0.16"/>
        <circle fill-opacity="1.0" fill="#edf8fb" r="0.92" cx="-901.51324"
                class="id_34" cy="-611.3422" stroke="#a5adaf"
                stroke-opacity="1.0" stroke-width="0.16"/>
    </g>
    <g id="node-labels">
        <text font-size="84" x="222.2264" y="58.457153" fill="#000000"
              style="text-anchor: middle; dominant-baseline: central;"
              font-family="Dialog" class="id_1">
            Person56DB51E6
        </text>
        <text font-size="73" x="-24.46344" y="-453.47726" fill="#000000"
              style="text-anchor: middle; dominant-baseline: central;"
              font-family="Dialog" class="id_2">
            Person5A5CB565
        </text>
        <text font-size="70" x="-353.04007" y="320.29977" fill="#000000"
              style="text-anchor: middle; dominant-baseline: central;"
              font-family="Dialog" class="id_3">
            Person908C2780
        </text>
        <text font-size="24" x="376.48386" y="994.3454" fill="#000000"
              style="text-anchor: middle; dominant-baseline: central;"
              font-family="Dialog" class="id_4">
            Person7C91EAD6
        </text>
        <text font-size="35" x="-311.10428" y="-582.2929" fill="#000000"
              style="text-anchor: middle; dominant-baseline: central;"
              font-family="Dialog" class="id_5">
            PersonCB575AFF
        </text>
        <text font-size="76" x="-485.49808" y="-252.60889" fill="#000000"
              style="text-anchor: middle; dominant-baseline: central;"
              font-family="Dialog" class="id_6">
            Person1A402A29
        </text>
        <text font-size="27" x="199.64868" y="917.95764" fill="#000000"
              style="text-anchor: middle; dominant-baseline: central;"
              font-family="Dialog" class="id_7">
            Person867284DD
        </text>
        <text font-size="35" x="731.12415" y="-438.6641" fill="#000000"
              style="text-anchor: middle; dominant-baseline: central;"
              font-family="Dialog" class="id_8">
            Person0B98A4D7
        </text>
        <text font-size="24" x="974.1016" y="-114.56259" fill="#000000"
              style="text-anchor: middle; dominant-baseline: central;"
              font-family="Dialog" class="id_9">
            Person12F83CDB
        </text>
        <text font-size="24" x="653.8625" y="-741.6861" fill="#000000"
              style="text-anchor: middle; dominant-baseline: central;"
              font-family="Dialog" class="id_10">
            Person249C14CD
        </text>
        <text font-size="27" x="458.93994" y="661.54956" fill="#000000"
              style="text-anchor: middle; dominant-baseline: central;"
              font-family="Dialog" class="id_11">
            Person6452C99F
        </text>
        <text font-size="35" x="288.02518" y="-589.0074" fill="#000000"
              style="text-anchor: middle; dominant-baseline: central;"
              font-family="Dialog" class="id_12">
            PersonF38B9C35
        </text>
        <text font-size="24" x="8.151115" y="761.31024" fill="#000000"
              style="text-anchor: middle; dominant-baseline: central;"
              font-family="Dialog" class="id_13">
            PersonA4383DA0
        </text>
        <text font-size="38" x="793.73645" y="109.75742" fill="#000000"
              style="text-anchor: middle; dominant-baseline: central;"
              font-family="Dialog" class="id_14">
            Person8D8FA633
        </text>
        <text font-size="24" x="1007.3454" y="348.9423" fill="#000000"
              style="text-anchor: middle; dominant-baseline: central;"
              font-family="Dialog" class="id_15">
            Person9FAD5483
        </text>
        <text font-size="27" x="768.807" y="572.98987" fill="#000000"
              style="text-anchor: middle; dominant-baseline: central;"
              font-family="Dialog" class="id_16">
            PersonD31E6682
        </text>
        <text font-size="24" x="-120.182625" y="1042.0338" fill="#000000"
              style="text-anchor: middle; dominant-baseline: central;"
              font-family="Dialog" class="id_17">
            Person917F0793
        </text>
        <text font-size="35" x="-640.45465" y="478.26425" fill="#000000"
              style="text-anchor: middle; dominant-baseline: central;"
              font-family="Dialog" class="id_18">
            Person494A218C
        </text>
        <text font-size="24" x="649.76733" y="846.6054" fill="#000000"
              style="text-anchor: middle; dominant-baseline: central;"
              font-family="Dialog" class="id_19">
            Person37FE6F01
        </text>
        <text font-size="24" x="-809.19104" y="656.0621" fill="#000000"
              style="text-anchor: middle; dominant-baseline: central;"
              font-family="Dialog" class="id_20">
            PersonFCA0C998
        </text>
        <text font-size="24" x="-564.18945" y="846.1344" fill="#000000"
              style="text-anchor: middle; dominant-baseline: central;"
              font-family="Dialog" class="id_21">
            Person2C38A2E5
        </text>
        <text font-size="24" x="-336.9616" y="910.5114" fill="#000000"
              style="text-anchor: middle; dominant-baseline: central;"
              font-family="Dialog" class="id_22">
            PersonC329DA22
        </text>
        <text font-size="24" x="-524.60876" y="-885.1766" fill="#000000"
              style="text-anchor: middle; dominant-baseline: central;"
              font-family="Dialog" class="id_23">
            PersonF7433F8F
        </text>
        <text font-size="24" x="149.81085" y="-798.0072" fill="#000000"
              style="text-anchor: middle; dominant-baseline: central;"
              font-family="Dialog" class="id_24">
            Person851815DB
        </text>
        <text font-size="24" x="-932.7739" y="-346.53305" fill="#000000"
              style="text-anchor: middle; dominant-baseline: central;"
              font-family="Dialog" class="id_25">
            PersonFFDC65F4
        </text>
        <text font-size="27" x="-631.35974" y="-680.5284" fill="#000000"
              style="text-anchor: middle; dominant-baseline: central;"
              font-family="Dialog" class="id_26">
            PersonA91F65B0
        </text>
        <text font-size="24" x="-15.357136" y="-1014.3453" fill="#000000"
              style="text-anchor: middle; dominant-baseline: central;"
              font-family="Dialog" class="id_27">
            Person6A703F75
        </text>
        <text font-size="24" x="962.5511" y="-507.07895" fill="#000000"
              style="text-anchor: middle; dominant-baseline: central;"
              font-family="Dialog" class="id_28">
            PersonA90B1997
        </text>
        <text font-size="27" x="-216.90247" y="-909.19244" fill="#000000"
              style="text-anchor: middle; dominant-baseline: central;"
              font-family="Dialog" class="id_29">
            PersonD748B6AF
        </text>
        <text font-size="24" x="-999.2169" y="310.57214" fill="#000000"
              style="text-anchor: middle; dominant-baseline: central;"
              font-family="Dialog" class="id_30">
            PersonDE76A2DA
        </text>
        <text font-size="24" x="-1066.1995" y="-19.555014" fill="#000000"
              style="text-anchor: middle; dominant-baseline: central;"
              font-family="Dialog" class="id_31">
            Person40D2D4A3
        </text>
        <text font-size="24" x="-844.3024" y="-50.329712" fill="#000000"
              style="text-anchor: middle; dominant-baseline: central;"
              font-family="Dialog" class="id_32">
            Person3CA9C893
        </text>
        <text font-size="24" x="300.85992" y="-1012.6622" fill="#000000"
              style="text-anchor: middle; dominant-baseline: central;"
              font-family="Dialog" class="id_33">
            PersonF06C267F
        </text>
        <text font-size="24" x="-901.51324" y="-606.80316" fill="#000000"
              style="text-anchor: middle; dominant-baseline: central;"
              font-family="Dialog" class="id_34">
            PersonCD78C524
        </text>
    </g>
</svg>